<svg width="46" height="19" viewBox="0 0 46 19" fill="none" xmlns="http://www.w3.org/2000/svg">
<path d="M8.18855 7.78C8.97255 8.284 9.62588 8.77867 10.1485 9.264C10.6712 9.73067 11.1005 10.3093 11.4365 11C11.7912 11.672 11.9685 12.4653 11.9685 13.38C11.9685 14.3507 11.7072 15.2187 11.1845 15.984C10.6619 16.7307 9.94321 17.3187 9.02855 17.748C8.11388 18.1587 7.08721 18.364 5.94855 18.364C4.73521 18.364 3.68988 18.14 2.81255 17.692C1.93521 17.244 1.26321 16.6373 0.796547 15.872C0.32988 15.1067 0.0965469 14.276 0.0965469 13.38C0.0965469 12.2227 0.423214 11.2147 1.07655 10.356C1.74855 9.49733 2.60721 8.79733 3.65255 8.256C2.99921 7.73333 2.48588 7.164 2.11255 6.548C1.75788 5.932 1.58055 5.19467 1.58055 4.336C1.58055 2.97333 2.02855 1.94667 2.92455 1.256C3.82055 0.546666 4.90321 0.191999 6.17255 0.191999C7.42321 0.191999 8.44988 0.518666 9.25255 1.172C10.0739 1.82533 10.4845 2.684 10.4845 3.748C10.4845 4.49467 10.2792 5.21333 9.86855 5.904C9.45788 6.59467 8.89788 7.22 8.18855 7.78ZM5.78055 0.78C5.18321 0.78 4.74455 0.975999 4.46455 1.368C4.20321 1.74133 4.07255 2.24533 4.07255 2.88C4.07255 3.832 4.34321 4.63467 4.88455 5.288C5.42588 5.92267 6.22855 6.56667 7.29255 7.22C7.60988 6.268 7.76855 5.22267 7.76855 4.084C7.76855 2.964 7.60988 2.13333 7.29255 1.592C6.97521 1.05067 6.47121 0.78 5.78055 0.78ZM6.59255 17.748C7.43255 17.748 8.05788 17.4493 8.46855 16.852C8.87921 16.2547 9.08455 15.48 9.08455 14.528C9.08455 13.6507 8.90721 12.904 8.55255 12.288C8.21655 11.6533 7.78721 11.1307 7.26455 10.72C6.76055 10.3093 6.07921 9.83333 5.22055 9.292L4.40855 8.788C4.05388 9.236 3.78321 9.77733 3.59655 10.412C3.40988 11.0467 3.31655 11.8213 3.31655 12.736C3.31655 14.304 3.60588 15.536 4.18455 16.432C4.76321 17.3093 5.56588 17.748 6.59255 17.748ZM13.8198 13.688C13.7825 13.7067 13.7452 13.6227 13.7078 13.436C13.6892 13.2493 13.6798 13.0533 13.6798 12.848C13.6798 12.4 13.7078 12.176 13.7638 12.176L21.0718 10.86C21.1092 10.8413 21.1372 10.916 21.1558 11.084C21.1932 11.2333 21.2118 11.4013 21.2118 11.588C21.2118 11.7747 21.1932 11.952 21.1558 12.12C21.1372 12.2693 21.1092 12.3533 21.0718 12.372L13.8198 13.688ZM23.1786 18C23.1413 18 23.1226 17.944 23.1226 17.832C23.1226 17.72 23.1413 17.664 23.1786 17.664C23.9626 17.664 24.5599 17.6173 24.9706 17.524C25.3999 17.412 25.7079 17.2253 25.8946 16.964C26.0813 16.684 26.1746 16.2733 26.1746 15.732V5.876C26.1746 4.476 25.8479 3.776 25.1946 3.776C24.7466 3.776 24.0839 4.07467 23.2066 4.672L23.1506 4.7C23.0946 4.7 23.0386 4.66267 22.9826 4.588C22.9453 4.49467 22.9453 4.43867 22.9826 4.42L28.7226 0.303999C28.7973 0.266666 28.8626 0.248 28.9186 0.248C28.9559 0.248 28.9933 0.276 29.0306 0.331999C29.0866 0.369333 29.1146 0.406666 29.1146 0.443999V15.732C29.1146 16.2733 29.1986 16.684 29.3666 16.964C29.5346 17.2253 29.8239 17.412 30.2346 17.524C30.6453 17.6173 31.2613 17.664 32.0826 17.664C32.1386 17.664 32.1666 17.72 32.1666 17.832C32.1666 17.944 32.1386 18 32.0826 18C31.3173 18 30.7013 17.9907 30.2346 17.972L27.6306 17.944L25.0546 17.972C24.5879 17.9907 23.9626 18 23.1786 18ZM39.9401 18.364C38.0734 18.364 36.6081 17.5613 35.5441 15.956C34.4801 14.332 33.9481 12.092 33.9481 9.236C33.9481 6.38 34.4801 4.15867 35.5441 2.572C36.6081 0.966666 38.0921 0.163999 39.9961 0.163999C41.8441 0.163999 43.2814 0.975999 44.3081 2.6C45.3534 4.20533 45.8761 6.44533 45.8761 9.32C45.8761 12.1573 45.3534 14.3787 44.3081 15.984C43.2628 17.5707 41.8068 18.364 39.9401 18.364ZM40.2761 17.776C41.0974 17.776 41.6854 17.1507 42.0401 15.9C42.3948 14.6493 42.5721 12.568 42.5721 9.656C42.5721 7.50933 42.4694 5.792 42.2641 4.504C42.0774 3.216 41.7694 2.27333 41.3401 1.676C40.9294 1.06 40.3788 0.751998 39.6881 0.751998C38.8108 0.751998 38.1761 1.396 37.7841 2.684C37.4108 3.95333 37.2241 6.072 37.2241 9.04C37.2241 12.1573 37.4574 14.3973 37.9241 15.76C38.4094 17.104 39.1934 17.776 40.2761 17.776Z" fill="#FF40AB"/>
</svg>
