<svg width="79" height="32" viewBox="0 0 79 32" fill="none" xmlns="http://www.w3.org/2000/svg">
<path d="M14.1089 13.48C15.4529 14.344 16.5729 15.192 17.4689 16.024C18.3649 16.824 19.1009 17.816 19.6769 19C20.2849 20.152 20.5889 21.512 20.5889 23.08C20.5889 24.744 20.1409 26.232 19.2449 27.544C18.3489 28.824 17.1169 29.832 15.5489 30.568C13.9809 31.272 12.2209 31.624 10.2689 31.624C8.18894 31.624 6.39694 31.24 4.89294 30.472C3.38894 29.704 2.23694 28.664 1.43694 27.352C0.636938 26.04 0.236938 24.616 0.236938 23.08C0.236938 21.096 0.796938 19.368 1.91694 17.896C3.06894 16.424 4.54094 15.224 6.33294 14.296C5.21294 13.4 4.33294 12.424 3.69294 11.368C3.08494 10.312 2.78094 9.048 2.78094 7.576C2.78094 5.24 3.54894 3.48 5.08494 2.296C6.62094 1.08 8.47694 0.471998 10.6529 0.471998C12.7969 0.471998 14.5569 1.032 15.9329 2.152C17.3409 3.272 18.0449 4.744 18.0449 6.568C18.0449 7.848 17.6929 9.08 16.9889 10.264C16.2849 11.448 15.3249 12.52 14.1089 13.48ZM9.98094 1.48C8.95694 1.48 8.20494 1.816 7.72494 2.488C7.27694 3.128 7.05294 3.992 7.05294 5.08C7.05294 6.712 7.51694 8.088 8.44494 9.208C9.37294 10.296 10.7489 11.4 12.5729 12.52C13.1169 10.888 13.3889 9.096 13.3889 7.144C13.3889 5.224 13.1169 3.8 12.5729 2.872C12.0289 1.944 11.1649 1.48 9.98094 1.48ZM11.3729 30.568C12.8129 30.568 13.8849 30.056 14.5889 29.032C15.2929 28.008 15.6449 26.68 15.6449 25.048C15.6449 23.544 15.3409 22.264 14.7329 21.208C14.1569 20.12 13.4209 19.224 12.5249 18.52C11.6609 17.816 10.4929 17 9.02094 16.072L7.62894 15.208C7.02094 15.976 6.55694 16.904 6.23694 17.992C5.91694 19.08 5.75694 20.408 5.75694 21.976C5.75694 24.664 6.25294 26.776 7.24494 28.312C8.23694 29.816 9.61294 30.568 11.3729 30.568ZM23.7626 23.608C23.6986 23.64 23.6346 23.496 23.5706 23.176C23.5386 22.856 23.5226 22.52 23.5226 22.168C23.5226 21.4 23.5706 21.016 23.6666 21.016L36.1946 18.76C36.2586 18.728 36.3066 18.856 36.3386 19.144C36.4026 19.4 36.4346 19.688 36.4346 20.008C36.4346 20.328 36.4026 20.632 36.3386 20.92C36.3066 21.176 36.2586 21.32 36.1946 21.352L23.7626 23.608ZM39.8062 31C39.7422 31 39.7102 30.904 39.7102 30.712C39.7102 30.52 39.7422 30.424 39.8062 30.424C41.1502 30.424 42.1742 30.344 42.8782 30.184C43.6142 29.992 44.1422 29.672 44.4622 29.224C44.7822 28.744 44.9422 28.04 44.9422 27.112V10.216C44.9422 7.816 44.3822 6.616 43.2622 6.616C42.4942 6.616 41.3582 7.128 39.8542 8.152L39.7582 8.2C39.6622 8.2 39.5662 8.136 39.4702 8.008C39.4062 7.848 39.4062 7.752 39.4702 7.72L49.3102 0.663999C49.4382 0.599999 49.5502 0.568 49.6462 0.568C49.7102 0.568 49.7742 0.615999 49.8382 0.711998C49.9342 0.775999 49.9822 0.839999 49.9822 0.903998V27.112C49.9822 28.04 50.1262 28.744 50.4142 29.224C50.7022 29.672 51.1982 29.992 51.9022 30.184C52.6062 30.344 53.6622 30.424 55.0702 30.424C55.1662 30.424 55.2142 30.52 55.2142 30.712C55.2142 30.904 55.1662 31 55.0702 31C53.7582 31 52.7022 30.984 51.9022 30.952L47.4382 30.904L43.0222 30.952C42.2222 30.984 41.1502 31 39.8062 31ZM68.5402 31.624C65.3402 31.624 62.8282 30.248 61.0042 27.496C59.1802 24.712 58.2682 20.872 58.2682 15.976C58.2682 11.08 59.1802 7.272 61.0042 4.552C62.8282 1.8 65.3722 0.423999 68.6362 0.423999C71.8042 0.423999 74.2682 1.816 76.0282 4.6C77.8202 7.352 78.7162 11.192 78.7162 16.12C78.7162 20.984 77.8202 24.792 76.0282 27.544C74.2362 30.264 71.7402 31.624 68.5402 31.624ZM69.1162 30.616C70.5242 30.616 71.5322 29.544 72.1402 27.4C72.7482 25.256 73.0522 21.688 73.0522 16.696C73.0522 13.016 72.8762 10.072 72.5242 7.864C72.2042 5.656 71.6762 4.04 70.9402 3.016C70.2362 1.96 69.2922 1.432 68.1082 1.432C66.6042 1.432 65.5162 2.536 64.8442 4.744C64.2042 6.92 63.8842 10.552 63.8842 15.64C63.8842 20.984 64.2842 24.824 65.0842 27.16C65.9162 29.464 67.2602 30.616 69.1162 30.616Z" fill="#FF40AB"/>
</svg>
