<svg width="11" height="18" viewBox="0 0 11 18" fill="none" xmlns="http://www.w3.org/2000/svg">
<path d="M1.23525 18C1.19792 18 1.17925 17.944 1.17925 17.832C1.17925 17.72 1.19792 17.664 1.23525 17.664C2.01925 17.664 2.61658 17.6173 3.02725 17.524C3.45658 17.412 3.76458 17.2253 3.95125 16.964C4.13792 16.684 4.23125 16.2733 4.23125 15.732V5.876C4.23125 4.476 3.90458 3.776 3.25125 3.776C2.80325 3.776 2.14058 4.07467 1.26325 4.672L1.20725 4.7C1.15125 4.7 1.09525 4.66267 1.03925 4.588C1.00192 4.49467 1.00192 4.43867 1.03925 4.42L6.77925 0.303999C6.85392 0.266666 6.91925 0.248 6.97525 0.248C7.01258 0.248 7.04992 0.276 7.08725 0.331999C7.14325 0.369333 7.17125 0.406666 7.17125 0.443999V15.732C7.17125 16.2733 7.25525 16.684 7.42325 16.964C7.59125 17.2253 7.88058 17.412 8.29125 17.524C8.70192 17.6173 9.31792 17.664 10.1393 17.664C10.1953 17.664 10.2233 17.72 10.2233 17.832C10.2233 17.944 10.1953 18 10.1393 18C9.37392 18 8.75792 17.9907 8.29125 17.972L5.68725 17.944L3.11125 17.972C2.64458 17.9907 2.01925 18 1.23525 18Z" fill="#FF40AB"/>
</svg>
