<svg width="130" height="33" viewBox="0 0 130 33" fill="none" xmlns="http://www.w3.org/2000/svg">
<path d="M8.24963 13.76C11.2256 13.76 13.5616 14.56 15.2576 16.16C16.9536 17.76 17.8016 20.032 17.8016 22.976C17.8016 26.016 16.8736 28.384 15.0176 30.08C13.1936 31.744 10.8416 32.576 7.96163 32.576C6.45763 32.576 5.11363 32.288 3.92963 31.712C2.74563 31.104 1.64163 30.192 0.617625 28.976L0.569625 28.88C0.569625 28.752 0.633625 28.656 0.761625 28.592C0.889625 28.496 0.985625 28.496 1.04963 28.592C1.65763 29.264 2.42563 29.776 3.35363 30.128C4.28163 30.448 5.24163 30.608 6.23363 30.608C8.31363 30.608 9.86563 29.968 10.8896 28.688C11.9136 27.376 12.4256 25.648 12.4256 23.504C12.4256 21.072 11.8656 19.12 10.7456 17.648C9.62563 16.144 8.00963 15.392 5.89763 15.392C4.96963 15.392 4.13763 15.488 3.40163 15.68C2.69763 15.872 2.26563 15.984 2.10563 16.016C1.94563 16.016 1.81763 15.968 1.72163 15.872C1.62563 15.744 1.59363 15.6 1.62563 15.44L3.16163 2.576C3.19363 2.352 3.24163 2.208 3.30563 2.144C3.36963 2.048 3.52963 2 3.78563 2C8.13763 2 11.0336 1.984 12.4736 1.952C13.9136 1.888 14.8576 1.776 15.3056 1.616C15.7536 1.456 16.1056 1.12 16.3616 0.607998C16.3936 0.543999 16.4896 0.527999 16.6496 0.559999C16.8096 0.559999 16.8736 0.623999 16.8416 0.751999L16.0256 6.08C15.9616 6.464 15.8496 6.72 15.6896 6.848C15.5616 6.976 15.3056 7.04 14.9216 7.04L4.79363 6.8C4.37763 6.8 4.12163 7.024 4.02563 7.472L3.11363 14.624C4.90563 14.048 6.61763 13.76 8.24963 13.76ZM21.411 24.608C21.347 24.64 21.283 24.496 21.219 24.176C21.187 23.856 21.171 23.52 21.171 23.168C21.171 22.4 21.219 22.016 21.315 22.016L33.843 19.76C33.907 19.728 33.955 19.856 33.987 20.144C34.051 20.4 34.083 20.688 34.083 21.008C34.083 21.328 34.051 21.632 33.987 21.92C33.955 22.176 33.907 22.32 33.843 22.352L21.411 24.608ZM51.0386 14.48C52.3826 15.344 53.5026 16.192 54.3986 17.024C55.2946 17.824 56.0306 18.816 56.6066 20C57.2146 21.152 57.5186 22.512 57.5186 24.08C57.5186 25.744 57.0706 27.232 56.1746 28.544C55.2786 29.824 54.0466 30.832 52.4786 31.568C50.9106 32.272 49.1506 32.624 47.1986 32.624C45.1186 32.624 43.3266 32.24 41.8226 31.472C40.3186 30.704 39.1666 29.664 38.3666 28.352C37.5666 27.04 37.1666 25.616 37.1666 24.08C37.1666 22.096 37.7266 20.368 38.8466 18.896C39.9986 17.424 41.4706 16.224 43.2626 15.296C42.1426 14.4 41.2626 13.424 40.6226 12.368C40.0146 11.312 39.7106 10.048 39.7106 8.576C39.7106 6.24 40.4786 4.48 42.0146 3.296C43.5506 2.08 45.4066 1.472 47.5826 1.472C49.7266 1.472 51.4866 2.032 52.8626 3.152C54.2706 4.272 54.9746 5.744 54.9746 7.568C54.9746 8.848 54.6226 10.08 53.9186 11.264C53.2146 12.448 52.2546 13.52 51.0386 14.48ZM46.9106 2.48C45.8866 2.48 45.1346 2.816 44.6546 3.488C44.2066 4.128 43.9826 4.992 43.9826 6.08C43.9826 7.712 44.4466 9.088 45.3746 10.208C46.3026 11.296 47.6786 12.4 49.5026 13.52C50.0466 11.888 50.3186 10.096 50.3186 8.144C50.3186 6.224 50.0466 4.8 49.5026 3.872C48.9586 2.944 48.0946 2.48 46.9106 2.48ZM48.3026 31.568C49.7426 31.568 50.8146 31.056 51.5186 30.032C52.2226 29.008 52.5746 27.68 52.5746 26.048C52.5746 24.544 52.2706 23.264 51.6626 22.208C51.0866 21.12 50.3506 20.224 49.4546 19.52C48.5906 18.816 47.4226 18 45.9506 17.072L44.5586 16.208C43.9506 16.976 43.4866 17.904 43.1666 18.992C42.8466 20.08 42.6866 21.408 42.6866 22.976C42.6866 25.664 43.1826 27.776 44.1746 29.312C45.1666 30.816 46.5426 31.568 48.3026 31.568ZM91.5263 31.424C91.6863 31.424 91.7663 31.52 91.7663 31.712C91.7663 31.904 91.6863 32 91.5263 32C90.9503 32 90.0543 31.968 88.8383 31.904C87.5583 31.84 86.6303 31.808 86.0543 31.808C85.5423 31.808 84.7103 31.84 83.5583 31.904C82.4703 31.968 81.7023 32 81.2543 32C81.1263 32 81.0623 31.904 81.0623 31.712C81.0623 31.52 81.1263 31.424 81.2543 31.424C81.9583 31.424 82.4703 31.344 82.7903 31.184C83.1103 30.992 83.2703 30.72 83.2703 30.368C83.2703 30.112 83.1743 29.776 82.9823 29.36C82.8223 28.912 82.6302 28.448 82.4062 27.968L78.3743 19.376L75.4943 26.096C74.9183 27.44 74.6303 28.528 74.6303 29.36C74.6303 30.736 75.3983 31.424 76.9343 31.424C77.0943 31.424 77.1743 31.52 77.1743 31.712C77.1743 31.904 77.0943 32 76.9343 32C76.5823 32 76.0863 31.968 75.4463 31.904C74.8063 31.84 74.1983 31.808 73.6223 31.808C72.9503 31.808 72.2943 31.84 71.6543 31.904C71.0783 31.968 70.5663 32 70.1182 32C69.9582 32 69.8782 31.904 69.8782 31.712C69.8782 31.52 69.9582 31.424 70.1182 31.424C70.6943 31.424 71.3023 31.024 71.9423 30.224C72.6143 29.392 73.4303 27.872 74.3903 25.664L79.9583 12.752C80.0223 12.624 80.1183 12.56 80.2463 12.56C80.3743 12.56 80.4703 12.624 80.5343 12.752L86.4863 25.424C87.3183 27.248 87.9583 28.56 88.4063 29.36C88.8543 30.128 89.3023 30.672 89.7503 30.992C90.1983 31.28 90.7903 31.424 91.5263 31.424ZM108.999 28.832C109.063 28.832 109.127 28.896 109.191 29.024C109.287 29.152 109.303 29.248 109.239 29.312C108.055 30.464 106.855 31.296 105.639 31.808C104.423 32.32 103.095 32.576 101.655 32.576C99.639 32.576 97.895 32.16 96.423 31.328C94.951 30.464 93.831 29.328 93.063 27.92C92.295 26.48 91.911 24.928 91.911 23.264C91.911 21.408 92.375 19.696 93.303 18.128C94.231 16.56 95.511 15.328 97.143 14.432C98.807 13.504 100.679 13.04 102.759 13.04C104.743 13.04 106.279 13.488 107.367 14.384C108.455 15.28 108.999 16.672 108.999 18.56C108.999 19.552 108.823 20.048 108.471 20.048L96.807 20.096C96.775 20.32 96.759 20.688 96.759 21.2C96.759 24.016 97.399 26.224 98.679 27.824C99.991 29.424 101.863 30.224 104.295 30.224C105.159 30.224 105.895 30.128 106.503 29.936C107.111 29.744 107.911 29.392 108.903 28.88L108.999 28.832ZM100.935 14C99.879 14 98.999 14.464 98.295 15.392C97.591 16.288 97.127 17.536 96.903 19.136L103.863 19.04C103.831 17.408 103.591 16.16 103.143 15.296C102.695 14.432 101.959 14 100.935 14ZM115.718 32C115.622 32 115.574 31.904 115.574 31.712C115.574 31.52 115.622 31.424 115.718 31.424C116.486 31.424 117.046 31.344 117.398 31.184C117.782 31.024 118.038 30.72 118.166 30.272C118.294 29.792 118.358 29.072 118.358 28.112V17.456C118.358 16.336 118.262 15.568 118.07 15.152C117.91 14.736 117.574 14.528 117.062 14.528C116.134 14.528 115.222 15.024 114.326 16.016C113.462 17.008 112.838 18.24 112.454 19.712C112.422 19.776 112.31 19.808 112.118 19.808C111.958 19.808 111.878 19.776 111.878 19.712L111.782 16.592C111.718 15.312 111.686 14.4 111.686 13.856C111.686 13.664 111.702 13.552 111.734 13.52C111.766 13.456 111.878 13.424 112.07 13.424C112.742 13.424 113.334 13.44 113.846 13.472L120.47 13.52L127.238 13.472C127.782 13.44 128.406 13.424 129.11 13.424C129.334 13.424 129.462 13.456 129.494 13.52C129.526 13.552 129.542 13.664 129.542 13.856C129.382 17.056 129.302 19.008 129.302 19.712C129.302 19.776 129.206 19.808 129.014 19.808C128.854 19.808 128.758 19.776 128.726 19.712C128.342 18.24 127.702 17.008 126.806 16.016C125.942 15.024 125.046 14.528 124.118 14.528C123.606 14.528 123.254 14.736 123.062 15.152C122.902 15.568 122.822 16.336 122.822 17.456V28.112C122.822 29.072 122.886 29.792 123.014 30.272C123.142 30.72 123.382 31.024 123.734 31.184C124.118 31.344 124.678 31.424 125.414 31.424C125.51 31.424 125.558 31.52 125.558 31.712C125.558 31.904 125.51 32 125.414 32C124.518 32 123.83 31.984 123.35 31.952L120.662 31.904L117.878 31.952C117.366 31.984 116.646 32 115.718 32Z" fill="#FF40AB"/>
</svg>
