<svg width="76" height="20" viewBox="0 0 76 20" fill="none" xmlns="http://www.w3.org/2000/svg">
<path d="M5.18728 8.36C6.92328 8.36 8.28595 8.82667 9.27528 9.76C10.2646 10.6933 10.7593 12.0187 10.7593 13.736C10.7593 15.5093 10.2179 16.8907 9.13528 17.88C8.07128 18.8507 6.69928 19.336 5.01928 19.336C4.14195 19.336 3.35795 19.168 2.66728 18.832C1.97661 18.4773 1.33261 17.9453 0.735281 17.236L0.707281 17.18C0.707281 17.1053 0.744615 17.0493 0.819281 17.012C0.893948 16.956 0.949948 16.956 0.987281 17.012C1.34195 17.404 1.78995 17.7027 2.33128 17.908C2.87261 18.0947 3.43261 18.188 4.01128 18.188C5.22461 18.188 6.12995 17.8147 6.72728 17.068C7.32462 16.3027 7.62328 15.2947 7.62328 14.044C7.62328 12.6253 7.29662 11.4867 6.64328 10.628C5.98995 9.75067 5.04728 9.312 3.81528 9.312C3.27395 9.312 2.78861 9.368 2.35928 9.48C1.94861 9.592 1.69661 9.65733 1.60328 9.676C1.50995 9.676 1.43528 9.648 1.37928 9.592C1.32328 9.51733 1.30461 9.43333 1.32328 9.34L2.21928 1.836C2.23795 1.70533 2.26595 1.62133 2.30328 1.584C2.34061 1.528 2.43395 1.5 2.58328 1.5C5.12195 1.5 6.81128 1.49067 7.65128 1.472C8.49128 1.43467 9.04195 1.36933 9.30328 1.276C9.56462 1.18267 9.76995 0.986666 9.91928 0.687999C9.93795 0.650666 9.99395 0.641333 10.0873 0.659999C10.1806 0.659999 10.2179 0.697333 10.1993 0.771999L9.72328 3.88C9.68595 4.104 9.62062 4.25333 9.52728 4.328C9.45262 4.40267 9.30328 4.44 9.07928 4.44L3.17128 4.3C2.92861 4.3 2.77928 4.43067 2.72328 4.692L2.19128 8.864C3.23661 8.528 4.23528 8.36 5.18728 8.36ZM12.8648 14.688C12.8274 14.7067 12.7901 14.6227 12.7528 14.436C12.7341 14.2493 12.7248 14.0533 12.7248 13.848C12.7248 13.4 12.7528 13.176 12.8088 13.176L20.1168 11.86C20.1541 11.8413 20.1821 11.916 20.2007 12.084C20.2381 12.2333 20.2568 12.4013 20.2568 12.588C20.2568 12.7747 20.2381 12.952 20.2007 13.12C20.1821 13.2693 20.1541 13.3533 20.1168 13.372L12.8648 14.688ZM30.1475 8.78C30.9315 9.284 31.5849 9.77867 32.1075 10.264C32.6302 10.7307 33.0595 11.3093 33.3955 12C33.7502 12.672 33.9275 13.4653 33.9275 14.38C33.9275 15.3507 33.6662 16.2187 33.1435 16.984C32.6209 17.7307 31.9022 18.3187 30.9875 18.748C30.0729 19.1587 29.0462 19.364 27.9075 19.364C26.6942 19.364 25.6489 19.14 24.7715 18.692C23.8942 18.244 23.2222 17.6373 22.7555 16.872C22.2889 16.1067 22.0555 15.276 22.0555 14.38C22.0555 13.2227 22.3822 12.2147 23.0355 11.356C23.7075 10.4973 24.5662 9.79733 25.6115 9.256C24.9582 8.73333 24.4449 8.164 24.0715 7.548C23.7169 6.932 23.5395 6.19467 23.5395 5.336C23.5395 3.97333 23.9875 2.94667 24.8835 2.256C25.7795 1.54667 26.8622 1.192 28.1315 1.192C29.3822 1.192 30.4089 1.51867 31.2115 2.172C32.0329 2.82533 32.4435 3.684 32.4435 4.748C32.4435 5.49467 32.2382 6.21333 31.8275 6.904C31.4169 7.59467 30.8569 8.22 30.1475 8.78ZM27.7395 1.78C27.1422 1.78 26.7035 1.976 26.4235 2.368C26.1622 2.74133 26.0315 3.24533 26.0315 3.88C26.0315 4.832 26.3022 5.63467 26.8435 6.288C27.3849 6.92267 28.1875 7.56667 29.2515 8.22C29.5689 7.268 29.7275 6.22267 29.7275 5.084C29.7275 3.964 29.5689 3.13333 29.2515 2.592C28.9342 2.05067 28.4302 1.78 27.7395 1.78ZM28.5515 18.748C29.3915 18.748 30.0169 18.4493 30.4275 17.852C30.8382 17.2547 31.0435 16.48 31.0435 15.528C31.0435 14.6507 30.8662 13.904 30.5115 13.288C30.1755 12.6533 29.7462 12.1307 29.2235 11.72C28.7195 11.3093 28.0382 10.8333 27.1795 10.292L26.3675 9.788C26.0129 10.236 25.7422 10.7773 25.5555 11.412C25.3689 12.0467 25.2755 12.8213 25.2755 13.736C25.2755 15.304 25.5649 16.536 26.1435 17.432C26.7222 18.3093 27.5249 18.748 28.5515 18.748ZM53.7653 18.664C53.8586 18.664 53.9053 18.72 53.9053 18.832C53.9053 18.944 53.8586 19 53.7653 19C53.4293 19 52.9066 18.9813 52.1973 18.944C51.4506 18.9067 50.9093 18.888 50.5733 18.888C50.2746 18.888 49.7893 18.9067 49.1173 18.944C48.4826 18.9813 48.0346 19 47.7733 19C47.6986 19 47.6613 18.944 47.6613 18.832C47.6613 18.72 47.6986 18.664 47.7733 18.664C48.184 18.664 48.4826 18.6173 48.6693 18.524C48.856 18.412 48.9493 18.2533 48.9493 18.048C48.9493 17.8987 48.8933 17.7027 48.7813 17.46C48.688 17.1987 48.576 16.928 48.4453 16.648L46.0933 11.636L44.4133 15.556C44.0773 16.34 43.9093 16.9747 43.9093 17.46C43.9093 18.2627 44.3573 18.664 45.2533 18.664C45.3466 18.664 45.3933 18.72 45.3933 18.832C45.3933 18.944 45.3466 19 45.2533 19C45.048 19 44.7586 18.9813 44.3853 18.944C44.012 18.9067 43.6573 18.888 43.3213 18.888C42.9293 18.888 42.5466 18.9067 42.1733 18.944C41.8373 18.9813 41.5386 19 41.2773 19C41.184 19 41.1373 18.944 41.1373 18.832C41.1373 18.72 41.184 18.664 41.2773 18.664C41.6133 18.664 41.968 18.4307 42.3413 17.964C42.7333 17.4787 43.2093 16.592 43.7693 15.304L47.0173 7.772C47.0546 7.69733 47.1106 7.66 47.1853 7.66C47.26 7.66 47.316 7.69733 47.3533 7.772L50.8253 15.164C51.3106 16.228 51.684 16.9933 51.9453 17.46C52.2066 17.908 52.468 18.2253 52.7293 18.412C52.9906 18.58 53.336 18.664 53.7653 18.664ZM63.9578 17.152C63.9951 17.152 64.0324 17.1893 64.0698 17.264C64.1258 17.3387 64.1351 17.3947 64.0978 17.432C63.4071 18.104 62.7071 18.5893 61.9978 18.888C61.2884 19.1867 60.5138 19.336 59.6738 19.336C58.4978 19.336 57.4804 19.0933 56.6218 18.608C55.7631 18.104 55.1098 17.4413 54.6618 16.62C54.2138 15.78 53.9898 14.8747 53.9898 13.904C53.9898 12.8213 54.2604 11.8227 54.8018 10.908C55.3431 9.99333 56.0898 9.27467 57.0418 8.752C58.0124 8.21067 59.1044 7.94 60.3178 7.94C61.4751 7.94 62.3711 8.20133 63.0058 8.724C63.6404 9.24667 63.9578 10.0587 63.9578 11.16C63.9578 11.7387 63.8551 12.028 63.6498 12.028L56.8458 12.056C56.8271 12.1867 56.8178 12.4013 56.8178 12.7C56.8178 14.3427 57.1911 15.6307 57.9378 16.564C58.7031 17.4973 59.7951 17.964 61.2138 17.964C61.7178 17.964 62.1471 17.908 62.5018 17.796C62.8564 17.684 63.3231 17.4787 63.9018 17.18L63.9578 17.152ZM59.2538 8.5C58.6378 8.5 58.1244 8.77067 57.7138 9.312C57.3031 9.83467 57.0324 10.5627 56.9018 11.496L60.9618 11.44C60.9431 10.488 60.8031 9.76 60.5418 9.256C60.2804 8.752 59.8511 8.5 59.2538 8.5ZM67.8769 19C67.8209 19 67.7929 18.944 67.7929 18.832C67.7929 18.72 67.8209 18.664 67.8769 18.664C68.3249 18.664 68.6515 18.6173 68.8569 18.524C69.0809 18.4307 69.2302 18.2533 69.3049 17.992C69.3795 17.712 69.4169 17.292 69.4169 16.732V10.516C69.4169 9.86267 69.3609 9.41467 69.2489 9.172C69.1555 8.92933 68.9595 8.808 68.6609 8.808C68.1195 8.808 67.5875 9.09733 67.0649 9.676C66.5609 10.2547 66.1969 10.9733 65.9729 11.832C65.9542 11.8693 65.8889 11.888 65.7769 11.888C65.6835 11.888 65.6369 11.8693 65.6369 11.832L65.5809 10.012C65.5435 9.26533 65.5249 8.73333 65.5249 8.416C65.5249 8.304 65.5342 8.23867 65.5529 8.22C65.5715 8.18267 65.6369 8.164 65.7489 8.164C66.1409 8.164 66.4862 8.17333 66.7849 8.192L70.6489 8.22L74.5969 8.192C74.9142 8.17333 75.2782 8.164 75.6889 8.164C75.8195 8.164 75.8942 8.18267 75.9129 8.22C75.9315 8.23867 75.9409 8.304 75.9409 8.416C75.8475 10.2827 75.8009 11.4213 75.8009 11.832C75.8009 11.8693 75.7449 11.888 75.6329 11.888C75.5395 11.888 75.4835 11.8693 75.4649 11.832C75.2409 10.9733 74.8675 10.2547 74.3449 9.676C73.8409 9.09733 73.3182 8.808 72.7769 8.808C72.4782 8.808 72.2729 8.92933 72.1609 9.172C72.0675 9.41467 72.0209 9.86267 72.0209 10.516V16.732C72.0209 17.292 72.0582 17.712 72.1329 17.992C72.2075 18.2533 72.3475 18.4307 72.5529 18.524C72.7769 18.6173 73.1035 18.664 73.5329 18.664C73.5889 18.664 73.6169 18.72 73.6169 18.832C73.6169 18.944 73.5889 19 73.5329 19C73.0102 19 72.6089 18.9907 72.3289 18.972L70.7609 18.944L69.1369 18.972C68.8382 18.9907 68.4182 19 67.8769 19Z" fill="#FF40AB"/>
</svg>
