<svg width="38" height="38" viewBox="0 0 38 38" fill="none" xmlns="http://www.w3.org/2000/svg">
<g clip-path="url(#clip0_16_728)">
<path d="M19 38C29.4934 38 38 29.4934 38 19C38 8.50659 29.4934 0 19 0C8.50659 0 0 8.50659 0 19C0 29.4934 8.50659 38 19 38Z" fill="#FF40AB"/>
<path d="M19.4799 23.2555C20.319 24.0946 20.319 25.5331 19.4799 26.3722L17.7417 28.1104C16.9026 28.9495 15.4641 28.9495 14.625 28.1104L7.01301 20.4385C6.17389 19.5993 6.17389 18.1609 7.01301 17.3217L8.75118 15.5836C9.5903 14.7444 11.0288 14.7444 11.8679 15.5836L19.4799 23.2555Z" fill="white"/>
<path d="M26.133 10.0093C26.9721 9.17023 28.4106 9.17023 29.2497 10.0093L30.9879 11.7475C31.827 12.5866 31.827 14.0251 30.9879 14.8642L17.8017 27.9904C16.9626 28.8295 15.5241 28.8295 14.685 27.9904L12.9468 26.2522C12.1077 25.4131 12.1077 23.9746 12.9468 23.1355L26.133 10.0093Z" fill="white"/>
</g>
<defs>
<clipPath id="clip0_16_728">
<rect width="38" height="38" fill="white"/>
</clipPath>
</defs>
</svg>
