<svg width="17" height="31" viewBox="0 0 17 31" fill="none" xmlns="http://www.w3.org/2000/svg">
<path d="M1.189 31C1.125 31 1.093 30.904 1.093 30.712C1.093 30.52 1.125 30.424 1.189 30.424C2.533 30.424 3.557 30.344 4.261 30.184C4.997 29.992 5.525 29.672 5.845 29.224C6.165 28.744 6.325 28.04 6.325 27.112V10.216C6.325 7.816 5.765 6.616 4.645 6.616C3.877 6.616 2.741 7.128 1.237 8.152L1.141 8.2C1.045 8.2 0.949 8.136 0.853 8.008C0.789 7.848 0.789 7.752 0.853 7.72L10.693 0.663999C10.821 0.599999 10.933 0.568 11.029 0.568C11.093 0.568 11.157 0.615999 11.221 0.711998C11.317 0.775999 11.365 0.839999 11.365 0.903998V27.112C11.365 28.04 11.509 28.744 11.797 29.224C12.085 29.672 12.581 29.992 13.285 30.184C13.989 30.344 15.045 30.424 16.453 30.424C16.549 30.424 16.597 30.52 16.597 30.712C16.597 30.904 16.549 31 16.453 31C15.141 31 14.085 30.984 13.285 30.952L8.821 30.904L4.405 30.952C3.605 30.984 2.533 31 1.189 31Z" fill="#FF40AB"/>
</svg>
