<svg width="42" height="42" viewBox="0 0 42 42" fill="none" xmlns="http://www.w3.org/2000/svg">
<circle cx="21" cy="21" r="21" fill="#FF40AB"/>
<g clip-path="url(#clip0_16_1251)">
<path d="M18.2817 23.7184C16.3727 21.8094 15.9417 19.9004 15.8444 19.1356C15.8173 18.9241 15.89 18.712 16.0413 18.5618L17.5862 17.0177C17.8134 16.7906 17.8537 16.4366 17.6834 16.1642L15.2237 12.3449C15.0353 12.0433 14.6484 11.9344 14.3303 12.0935L10.3817 13.9532C10.1245 14.0798 9.97316 14.3531 10.0024 14.6384C10.2093 16.6039 11.0662 21.4356 15.8144 26.1842C20.5627 30.9328 25.3937 31.7894 27.3603 31.9963C27.6455 32.0255 27.9188 31.8742 28.0455 31.617L29.9051 27.6684C30.0637 27.351 29.9555 26.9651 29.6551 26.7763L25.8358 24.3173C25.5636 24.1468 25.2096 24.1869 24.9824 24.4139L23.4382 25.9587C23.288 26.11 23.0759 26.1828 22.8644 26.1556C22.0996 26.0584 20.1906 25.6273 18.2817 23.7184V23.7184Z" fill="white"/>
<path d="M25.862 22.6897C25.4811 22.6897 25.1724 22.381 25.1724 22.0001C25.1691 19.1448 22.8553 16.8309 20 16.8277C19.6191 16.8277 19.3103 16.5189 19.3103 16.138C19.3103 15.7571 19.6191 15.4483 20 15.4483C23.6167 15.4523 26.5477 18.3833 26.5517 22.0001C26.5517 22.381 26.2429 22.6897 25.862 22.6897Z" fill="white"/>
<path d="M29.3103 22.6897C28.9294 22.6897 28.6207 22.3809 28.6207 22C28.6153 17.2411 24.7588 13.3846 20 13.3793C19.6191 13.3793 19.3103 13.0705 19.3103 12.6897C19.3103 12.3088 19.6191 12 20 12C25.5203 12.0061 29.9939 16.4797 30 22C30 22.1829 29.9273 22.3583 29.798 22.4877C29.6686 22.617 29.4932 22.6897 29.3103 22.6897Z" fill="white"/>
</g>
<defs>
<clipPath id="clip0_16_1251">
<rect width="20" height="20" fill="white" transform="translate(10 12)"/>
</clipPath>
</defs>
</svg>
