<svg width="123" height="123" viewBox="0 0 123 123" fill="none" xmlns="http://www.w3.org/2000/svg">
<path d="M123 1.0708L120.106 22.2633C112.581 21.6826 107.082 23.231 103.609 26.9082C100.136 30.5854 98.0141 35.5206 97.2424 41.7138C96.4706 47.9071 96.2776 54.5842 96.6635 61.7451H123V123H73.5106V50.1328C73.5106 32.3273 77.9482 18.9731 86.8235 10.0703C95.8918 1.16758 107.951 -1.83227 123 1.0708ZM49.4894 1.0708L46.5953 22.2633C39.0706 21.6826 33.5718 23.231 30.0988 26.9082C26.6259 30.5854 24.5035 35.5206 23.7318 41.7138C22.96 47.9071 22.7671 54.5842 23.1529 61.7451H49.4894V123H0V50.1328C0 32.3273 4.43765 18.9731 13.3129 10.0703C22.3812 1.16758 34.44 -1.83227 49.4894 1.0708Z" fill="#FFEDF1"/>
</svg>
