<svg width="20" height="20" viewBox="0 0 20 20" fill="none" xmlns="http://www.w3.org/2000/svg">
<g clip-path="url(#clip0_3_313)">
<path d="M13.3308 3.32083H15.1567V0.140833C14.8417 0.0975 13.7583 0 12.4967 0C9.86416 0 8.06082 1.65583 8.06082 4.69917V7.5H5.15582V11.055H8.06082V20H11.6225V11.0558H14.41L14.8525 7.50083H11.6217V5.05167C11.6225 4.02417 11.8992 3.32083 13.3308 3.32083Z" fill="#FF40AB"/>
<g clip-path="url(#clip1_3_313)">
<path d="M86.3218 42.1438L86.1938 43.2104C54.9191 27.6229 51.648 25.5464 47.6089 31.6051C44.8071 35.8006 36.6435 45.3153 34.1831 48.1313C31.6942 50.9046 29.2195 51.118 24.9955 49.198C20.7289 47.0647 7.03288 42.5846 -9.18047 28.078C-21.8098 16.7713 -30.2862 2.90464 -32.7893 -1.36202C-36.9565 -8.55847 -28.2382 -9.58247 -20.3022 -24.6011C-18.88 -27.5878 -19.6054 -29.9345 -20.6578 -32.0536C-21.7245 -34.1869 -30.2151 -55.0936 -33.7707 -63.4278C-37.184 -71.7336 -40.6969 -70.6811 -43.328 -70.6811C-51.52 -71.3922 -57.5076 -71.2785 -62.784 -65.7887C-85.7387 -40.5585 -79.9502 -14.5318 -60.3093 13.1446C-21.7102 63.662 -1.1449 72.9633 36.4587 85.8771C46.6133 89.1055 55.872 88.6504 63.1964 87.598C71.36 86.3038 88.3271 77.3438 91.8684 67.3171C95.4951 57.2904 95.4951 48.9704 94.4284 47.0504C93.376 45.1304 90.5884 44.0638 86.3218 42.1438Z" fill="#FF40AB"/>
<path d="M129.173 -112.281C19.8186 -217.995 -161.159 -141.323 -161.23 7.8112C-161.23 37.621 -153.422 66.6912 -138.546 92.3623L-162.667 180L-72.5689 156.505C39.8578 217.233 178.61 136.593 178.667 7.89655C178.667 -37.2732 161.031 -79.7835 128.96 -111.727L129.173 -112.281ZM150.251 7.42722C150.165 115.985 30.9973 183.783 -63.2534 128.373L-68.3734 125.329L-121.707 139.196L-107.413 87.3561L-110.812 82.0228C-169.465 -11.3461 -102.08 -133.373 9.02397 -133.373C46.7698 -133.373 82.1973 -118.653 108.878 -91.9861C135.545 -65.547 150.251 -30.1195 150.251 7.42722Z" fill="#FF40AB"/>
</g>
</g>
<defs>
<clipPath id="clip0_3_313">
<rect width="20" height="20" fill="white"/>
</clipPath>
<clipPath id="clip1_3_313">
<rect width="341.333" height="341.333" fill="white" transform="translate(-162.667 -161.333)"/>
</clipPath>
</defs>
</svg>
