<svg width="20" height="20" viewBox="0 0 20 20" fill="none" xmlns="http://www.w3.org/2000/svg">
<g clip-path="url(#clip0_3_309)">
<path d="M10.0033 4.86523C7.16748 4.86523 4.87164 7.16357 4.87164 9.9969C4.87164 12.8327 7.16998 15.1286 10.0033 15.1286C12.8391 15.1286 15.135 12.8302 15.135 9.9969C15.135 7.16107 12.8366 4.86523 10.0033 4.86523ZM10.0033 13.3277C8.16248 13.3277 6.67248 11.8369 6.67248 9.9969C6.67248 8.1569 8.16331 6.66607 10.0033 6.66607C11.8433 6.66607 13.3341 8.1569 13.3341 9.9969C13.335 11.8369 11.8441 13.3277 10.0033 13.3277Z" fill="#FF40AB"/>
<path d="M14.1232 0.0637988C12.2832 -0.0220346 7.72572 -0.0178679 5.88405 0.0637988C4.26572 0.139632 2.83822 0.530465 1.68738 1.6813C-0.235949 3.60463 0.00988421 6.1963 0.00988421 9.99714C0.00988421 13.8871 -0.206782 16.4188 1.68738 18.313C3.61822 20.243 6.24738 19.9905 10.0032 19.9905C13.8566 19.9905 15.1865 19.993 16.549 19.4655C18.4016 18.7463 19.7999 17.0905 19.9366 14.1163C20.0232 12.2755 20.0182 7.7188 19.9366 5.87713C19.7715 2.3663 17.8874 0.237132 14.1232 0.0637988ZM17.0357 17.0405C15.7749 18.3013 14.0257 18.1888 9.97905 18.1888C5.81238 18.1888 4.14155 18.2505 2.92238 17.028C1.51822 15.6305 1.77238 13.3863 1.77238 9.9838C1.77238 5.37963 1.29988 2.0638 5.92072 1.82713C6.98238 1.78963 7.29488 1.77713 9.96738 1.77713L10.0049 1.80213C14.4457 1.80213 17.9299 1.33713 18.139 5.95713C18.1866 7.0113 18.1974 7.32797 18.1974 9.9963C18.1966 14.1146 18.2749 15.7955 17.0357 17.0405Z" fill="#FF40AB"/>
<path d="M15.3383 5.86171C16.0006 5.86171 16.5375 5.32483 16.5375 4.66255C16.5375 4.00026 16.0006 3.46338 15.3383 3.46338C14.676 3.46338 14.1392 4.00026 14.1392 4.66255C14.1392 5.32483 14.676 5.86171 15.3383 5.86171Z" fill="#FF40AB"/>
</g>
<defs>
<clipPath id="clip0_3_309">
<rect width="20" height="20" fill="white"/>
</clipPath>
</defs>
</svg>
