<svg width="20" height="20" viewBox="0 0 20 20" fill="none" xmlns="http://www.w3.org/2000/svg">
<g clip-path="url(#clip0_8_705)">
<path d="M8.28174 11.7183C6.37277 9.80933 5.94174 7.90037 5.84449 7.13554C5.81732 6.92406 5.8901 6.71198 6.04139 6.56175L7.58622 5.01761C7.81346 4.7905 7.85379 4.43657 7.68346 4.16416L5.2238 0.344852C5.03536 0.0432134 4.64844 -0.0656508 4.33036 0.0934725L0.381735 1.95313C0.124514 2.07978 -0.0267798 2.35308 0.00242481 2.6383C0.209321 4.60382 1.06622 9.43554 5.81449 14.1842C10.5628 18.9328 15.3938 19.7893 17.3604 19.9962C17.6456 20.0254 17.9189 19.8741 18.0455 19.6169L19.9052 15.6683C20.0637 15.3509 19.9556 14.965 19.6552 14.7762L15.8359 12.3173C15.5636 12.1468 15.2097 12.1868 14.9824 12.4138L13.4383 13.9586C13.2881 14.1099 13.076 14.1827 12.8645 14.1555C12.0997 14.0583 10.1907 13.6273 8.28174 11.7183Z" fill="#FF40AB"/>
<path d="M15.8621 10.6896C15.4812 10.6896 15.1724 10.3809 15.1724 9.99997C15.1692 7.14466 12.8553 4.83078 10 4.82755C9.61913 4.82755 9.31036 4.51878 9.31036 4.1379C9.31036 3.75701 9.61913 3.44824 10 3.44824C13.6168 3.45223 16.5478 6.3832 16.5517 9.99997C16.5517 10.3809 16.243 10.6896 15.8621 10.6896Z" fill="#FF40AB"/>
<path d="M19.3104 10.6897C18.9295 10.6897 18.6207 10.3809 18.6207 10C18.6154 5.24113 14.7589 1.38463 10 1.37931C9.61913 1.37931 9.31036 1.07054 9.31036 0.689655C9.31036 0.308769 9.61913 0 10 0C15.5204 0.00608134 19.994 4.47967 20 10C20 10.1829 19.9274 10.3583 19.798 10.4877C19.6687 10.617 19.4933 10.6897 19.3104 10.6897Z" fill="#FF40AB"/>
</g>
<defs>
<clipPath id="clip0_8_705">
<rect width="20" height="20" fill="white"/>
</clipPath>
</defs>
</svg>
