<svg width="20" height="20" viewBox="0 0 20 20" fill="none" xmlns="http://www.w3.org/2000/svg">
<g clip-path="url(#clip0_16_1263)">
<path d="M8.28167 11.7184C6.37271 9.80939 5.94167 7.90043 5.84443 7.1356C5.81726 6.92412 5.89004 6.71204 6.04133 6.56181L7.58616 5.01767C7.8134 4.79056 7.85373 4.43663 7.6834 4.16422L5.22374 0.344913C5.0353 0.0432745 4.64838 -0.0655898 4.33029 0.0935335L0.381674 1.95319C0.124453 2.07985 -0.0268408 2.35314 0.00236378 2.63836C0.20926 4.60388 1.06616 9.4356 5.81443 14.1842C10.5627 18.9328 15.3937 19.7894 17.3603 19.9963C17.6455 20.0255 17.9188 19.8742 18.0455 19.617L19.9051 15.6684C20.0637 15.351 19.9555 14.9651 19.6551 14.7763L15.8358 12.3173C15.5636 12.1468 15.2096 12.1869 14.9824 12.4139L13.4382 13.9587C13.288 14.11 13.0759 14.1828 12.8644 14.1556C12.0996 14.0584 10.1906 13.6273 8.28167 11.7184Z" fill="white"/>
<path d="M15.862 10.6897C15.4811 10.6897 15.1724 10.381 15.1724 10.0001C15.1691 7.14476 12.8553 4.83088 9.99996 4.82765C9.61907 4.82765 9.3103 4.51888 9.3103 4.138C9.3103 3.75711 9.61907 3.44834 9.99996 3.44834C13.6167 3.45233 16.5477 6.3833 16.5517 10.0001C16.5517 10.381 16.2429 10.6897 15.862 10.6897Z" fill="white"/>
<path d="M19.3103 10.6897C18.9294 10.6897 18.6207 10.3809 18.6207 10C18.6153 5.24113 14.7588 1.38463 9.99996 1.37931C9.61907 1.37931 9.3103 1.07054 9.3103 0.689655C9.3103 0.308769 9.61907 0 9.99996 0C15.5203 0.00608134 19.9939 4.47967 20 10C20 10.1829 19.9273 10.3583 19.798 10.4877C19.6686 10.617 19.4932 10.6897 19.3103 10.6897Z" fill="white"/>
</g>
<defs>
<clipPath id="clip0_16_1263">
<rect width="20" height="20" fill="white"/>
</clipPath>
</defs>
</svg>
