<svg width="16" height="16" viewBox="0 0 16 16" fill="none" xmlns="http://www.w3.org/2000/svg">
<g clip-path="url(#clip0_7_466)">
<path d="M8 16C12.4183 16 16 12.4183 16 8C16 3.58172 12.4183 0 8 0C3.58172 0 0 3.58172 0 8C0 12.4183 3.58172 16 8 16Z" fill="#FF40AB"/>
<path d="M8.20204 9.79166C8.55535 10.145 8.55535 10.7506 8.20204 11.104L7.47018 11.8358C7.11686 12.1891 6.51118 12.1891 6.15787 11.8358L2.95282 8.60554C2.59951 8.25222 2.59951 7.64655 2.95282 7.29323L3.68468 6.56137C4.038 6.20806 4.64367 6.20806 4.99699 6.56137L8.20204 9.79166Z" fill="white"/>
<path d="M11.0033 4.21445C11.3566 3.86113 11.9623 3.86113 12.3156 4.21445L13.0475 4.94631C13.4008 5.29962 13.4008 5.9053 13.0475 6.25861L7.49543 11.7854C7.14212 12.1387 6.53644 12.1387 6.18312 11.7854L5.45126 11.0536C5.09795 10.7003 5.09795 10.0946 5.45126 9.74126L11.0033 4.21445Z" fill="white"/>
</g>
<defs>
<clipPath id="clip0_7_466">
<rect width="16" height="16" fill="white"/>
</clipPath>
</defs>
</svg>
