<svg width="22" height="22" viewBox="0 0 22 22" fill="none" xmlns="http://www.w3.org/2000/svg">
<g clip-path="url(#clip0_7_517)">
<path d="M21.9427 8.43922C21.7986 7.99374 21.4035 7.67734 20.9361 7.63521L14.5862 7.05864L12.0754 1.18167C11.8902 0.750968 11.4686 0.472168 11.0001 0.472168C10.5316 0.472168 10.11 0.750968 9.92486 1.18268L7.41398 7.05864L1.06317 7.63521C0.59654 7.67835 0.202426 7.99374 0.0575701 8.43922C-0.0872853 8.88469 0.0464919 9.37331 0.399483 9.68131L5.19918 13.8907L3.78386 20.1252C3.6803 20.5836 3.85822 21.0574 4.23857 21.3324C4.44301 21.4801 4.6822 21.5553 4.9234 21.5553C5.13137 21.5553 5.33766 21.4992 5.5228 21.3884L11.0001 18.1148L16.4754 21.3884C16.8761 21.6294 17.3811 21.6075 17.7606 21.3324C18.1412 21.0566 18.3189 20.5826 18.2154 20.1252L16.8 13.8907L21.5997 9.68215C21.9527 9.37331 22.0875 8.88553 21.9427 8.43922Z" fill="#FF40AB"/>
</g>
<defs>
<clipPath id="clip0_7_517">
<rect width="22" height="22" fill="white"/>
</clipPath>
</defs>
</svg>
